<?xml version="1.0" encoding="UTF-8" standalone="no"?>
<svg
   xmlns:dc="http://purl.org/dc/elements/1.1/"
   xmlns:cc="http://creativecommons.org/ns#"
   xmlns:rdf="http://www.w3.org/1999/02/22-rdf-syntax-ns#"
   xmlns:svg="http://www.w3.org/2000/svg"
   xmlns="http://www.w3.org/2000/svg"
   viewBox="0 0 200 76"
   height="76"
   width="200"
   xml:space="preserve"
   id="svg2"
   version="1.1"><metadata
     id="metadata8"><rdf:RDF><cc:Work
         rdf:about=""><dc:format>image/svg+xml</dc:format><dc:type
           rdf:resource="http://purl.org/dc/dcmitype/StillImage" /></cc:Work></rdf:RDF></metadata><defs
     id="defs6" /><g
     transform="matrix(1.3333333,0,0,-1.3333333,0,76)"
     id="g10"><g
       transform="scale(0.1)"
       id="g12"><path
         id="path14"
         style="fill:#ffffff;fill-opacity:1;fill-rule:nonzero;stroke:none"
         d="m 359.91,188.656 h 22.9414 V 336.554 H 359.91 Z" /><path
         id="path16"
         style="fill:#ffffff;fill-opacity:1;fill-rule:nonzero;stroke:none"
         d="M 569.102,227.852 492.18,336.563 H 472.852 V 188.66 h 21.277 V 297.672 L 571.07,188.66 h 19.321 V 336.563 H 569.102 V 227.852" /><path
         id="path18"
         style="fill:#ffffff;fill-opacity:1;fill-rule:nonzero;stroke:none"
         d="M 1074.54,337.332 1012.02,188.66 h 24.7 l 16.23,40.742 h 60.89 l 17.23,-40.742 h 24.3 l -62.03,148.672 z m 8.74,-33.75 22.19,-54.051 h -44.43 l 22.24,54.051" /><path
         id="path20"
         style="fill:#ffffff;fill-opacity:1;fill-rule:nonzero;stroke:none"
         d="m 1311.81,328.75 c -11.53,7.199 -24.65,7.809 -36.04,7.809 H 1216.8 V 188.66 h 21.51 v 56.352 h 37.46 c 11.39,0 24.51,0.597 35.98,7.769 12.31,7.348 19.67,21.52 19.67,37.899 0,16.511 -7.33,30.742 -19.61,38.07 m -2.74,-37.859 c 0,-10.262 -4.75,-19.141 -12.05,-22.582 -5.34,-2.27 -11.01,-3.579 -24.17,-3.579 h -34.54 v 52.11 h 34.54 c 13.77,0 19.09,-1.25 24.09,-3.539 7.48,-3.36 12.13,-11.949 12.13,-22.41" /><path
         id="path22"
         style="fill:#ffffff;fill-opacity:1;fill-rule:nonzero;stroke:none"
         d="M 1387.97,336.559 V 188.66 H 1500 v 19.719 h -90.72 v 42.98 h 72.9 v 19.918 h -72.9 v 45.563 h 87.95 v 19.719 h -109.26" /><path
         id="path24"
         style="fill:#ffffff;fill-opacity:1;fill-rule:nonzero;stroke:none"
         d="m 944.398,223.266 c -5.789,-7.918 -16.269,-17.352 -33.289,-17.352 -27.57,0 -46.089,22.781 -46.089,56.691 0,33.911 18.519,56.7 46.089,56.7 17.02,0 27.5,-9.438 33.289,-17.36 l 2.411,-3.281 19.98,9.363 c 0,0 -2.769,5.618 -4.98,8.149 -8.211,10.422 -23.672,22.84 -50.7,22.84 -41.742,0 -68.711,-29.989 -68.711,-76.411 0,-46.417 26.969,-76.41 68.711,-76.41 29.09,0 44.598,14.172 51.207,22.563 2.18,2.5 5.903,7.758 5.903,7.758 l -21.41,10.039 -2.411,-3.289" /><path
         id="path26"
         style="fill:#ffffff;fill-opacity:1;fill-rule:nonzero;stroke:none"
         d="m 734.363,273.203 -19.547,4.11 c -19.832,4.21 -26.191,9.32 -26.191,21.039 0,12.211 12.449,20.742 30.277,20.742 14.762,0 26.774,-5.629 35.703,-16.742 l 2.411,-3 20.097,9.429 c 0,0 -3.308,5.133 -5.34,7.532 -6.738,8.48 -22.476,22.71 -52.226,22.71 -30.902,0 -53.32,-17.539 -53.32,-41.699 0,-28.871 22.527,-35.98 43.648,-40.371 l 18.301,-3.922 c 20.328,-4.199 27.89,-10.179 27.89,-22.058 0,-15.692 -13.171,-25.059 -35.23,-25.059 -29.652,0 -39.781,19.41 -42.184,25.367 l -1.765,4.383 -20.153,-9.41 c 0,0 1.403,-4.031 2.371,-5.891 3.86,-8.019 19.711,-34.172 61.52,-34.172 34.719,0 58.059,18.332 58.059,45.602 0,28.262 -21.301,36.602 -44.321,41.41" /><path
         id="path28"
         style="fill:#ffffff;fill-opacity:1;fill-rule:nonzero;stroke:none"
         d="m 70.0898,569.953 c 13.7891,-0.812 26.1915,-5.289 37.0582,-13.64 12.532,-9.629 20.532,-22.141 24,-37.379 1.391,-6.09 1.832,-12.282 1.313,-18.5 -1.211,-14.661 -6.691,-27.59 -16.813,-38.481 -4.757,-5.109 -9.91,-9.871 -14.91,-14.769 -11.2302,-11.012 -22.0192,-21.582 -33.2692,-32.59 l -1.129,-1.129 -1.1289,1.129 c -11.25,11.008 -22.0429,21.578 -33.2812,32.59 -4.9883,4.898 -10.1406,9.66 -14.8984,14.769 -10.12114,10.891 -15.60161,23.82 -16.81255,38.481 -0.519531,6.218 -0.078125,12.41 1.3125,18.5 C 5,534.172 13,546.684 25.5313,556.313 c 10.8593,8.351 23.2695,12.828 37.0585,13.64 0,0 2.6915,0.188 7.5,0" /><path
         id="path30"
         style="fill:#ffffff;fill-opacity:1;fill-rule:nonzero;stroke:none"
         d="m 132.648,146.063 c 0.008,-53.8521 0.059,-26.711 -0.019,-80.5513 C 132.598,51.1719 128.137,38.1719 119.527,26.6914 110.355,14.4531 98.3281,6.29297 83.5469,2.27344 76.6875,0.402344 69.6875,-0.308594 62.5781,0.121094 48.0469,0.992188 35.1094,6.00391 23.9258,15.3203 12.168,25.1211 4.65625,37.582 1.4375,52.582 c -0.988281,4.6211 -1.4296875,9.2813 -1.4296875,14 0,53.289 -0.03125,25.6016 0.03125,78.879 v 156.562 l 0.1679685,6.457 c 1.218749,14.653 6.699219,27.59 16.820269,38.473 4.7618,5.11 9.9102,9.879 14.8985,14.77 11.2422,11.019 22.0312,21.59 33.2812,32.59 l 1.1289,1.128 1.1329,-1.128 c 11.25,-11 22.039,-21.571 33.2772,-32.59 5,-4.891 10.141,-9.66 14.891,-14.77 10.14,-10.883 15.609,-23.82 16.82,-38.473 l 0.191,-5.859 c 0.008,-49.648 0.047,-102.867 -0.011,-153.07 l 0.011,-0.258 v -3.23" /></g></g></svg>