<?xml version="1.0" encoding="UTF-8" standalone="no"?>
<svg width="200px" height="76px" viewBox="0 0 200 76" version="1.1" xmlns="http://www.w3.org/2000/svg" xmlns:xlink="http://www.w3.org/1999/xlink">
    <!-- Generator: Sketch 40.3 (33839) - http://www.bohemiancoding.com/sketch -->
    <title>logolockup_solid_white</title>
    <desc>Created with Sketch.</desc>
    <defs></defs>
    <g id="Page-1" stroke="none" stroke-width="1" fill="none" fill-rule="evenodd">
        <g id="logolockup_solid_white" transform="translate(0.000000, -1.000000)" fill="#2D2F7A">
            <g id="svg2">
                <g id="g10" transform="translate(100.000000, 38.500000) scale(1, -1) translate(-100.000000, -38.500000) ">
                    <g id="g12">
                        <polygon id="path14" points="47.9879988 25.1541327 51.0468521 25.1541327 51.0468521 44.8738655 47.9879988 44.8738655"></polygon>
                        <polyline id="path16" points="75.8802648 30.3802659 65.6239984 44.8750655 63.0469318 44.8750655 63.0469318 25.154666 65.883865 25.154666 65.883865 39.689599 76.1426648 25.154666 78.718798 25.154666 78.718798 44.8750655 75.8802648 44.8750655 75.8802648 30.3802659"></polyline>
                        <path d="M143.271996,44.9775989 L134.935997,25.154666 L138.22933,25.154666 L140.39333,30.5869326 L148.511996,30.5869326 L150.80933,25.154666 L154.049329,25.154666 L145.778663,44.9775989 L143.271996,44.9775989 Z M144.43733,40.477599 L147.395996,33.2707992 L141.471996,33.2707992 L144.43733,40.477599 L144.43733,40.477599 Z" id="path18"></path>
                        <path d="M174.907996,43.8333322 C173.370662,44.7931989 171.621329,44.8745322 170.102662,44.8745322 L162.239996,44.8745322 L162.239996,25.154666 L165.107996,25.154666 L165.107996,32.6682658 L170.102662,32.6682658 C171.621329,32.6682658 173.370662,32.7478658 174.899996,33.7041325 C176.541329,34.6838658 177.522662,36.5734658 177.522662,38.7573324 C177.522662,40.958799 176.545329,42.8562656 174.907996,43.8333322 M174.542662,38.7854657 C174.542662,37.4171991 173.909329,36.2333324 172.935996,35.7745324 C172.223996,35.4718658 171.467996,35.2973325 169.713329,35.2973325 L165.107996,35.2973325 L165.107996,42.2453323 L169.713329,42.2453323 C171.549329,42.2453323 172.258662,42.0786656 172.925329,41.7734656 C173.922662,41.3254656 174.542662,40.1802657 174.542662,38.7854657" id="path20"></path>
                        <polyline id="path22" points="185.062662 44.8745322 185.062662 25.154666 199.999995 25.154666 199.999995 27.783866 187.903995 27.783866 187.903995 33.5145325 197.623995 33.5145325 197.623995 36.1702658 187.903995 36.1702658 187.903995 42.2453323 199.630662 42.2453323 199.630662 44.8745322 185.062662 44.8745322"></polyline>
                        <path d="M125.91973,29.7687993 C125.147864,28.7130659 123.75053,27.4551993 121.481197,27.4551993 C117.805197,27.4551993 115.335997,30.4926659 115.335997,35.0139991 C115.335997,39.5354657 117.805197,42.5739989 121.481197,42.5739989 C123.75053,42.5739989 125.147864,41.315599 125.91973,40.2593323 L126.241197,39.8218657 L128.905197,41.0702656 C128.905197,41.0702656 128.535997,41.8193323 128.241197,42.1567989 C127.146397,43.5463989 125.08493,45.2021322 121.481197,45.2021322 C115.915597,45.2021322 112.319731,41.203599 112.319731,35.0139991 C112.319731,28.8250659 115.915597,24.8259994 121.481197,24.8259994 C125.359864,24.8259994 127.427597,26.7155993 128.308797,27.8343993 C128.599463,28.1677326 129.095863,28.8687993 129.095863,28.8687993 L126.241197,30.2073326 L125.91973,29.7687993" id="path24"></path>
                        <path d="M97.9150642,36.4270658 L95.3087976,36.9750657 C92.664531,37.5363991 91.8166644,38.2177324 91.8166644,39.7802657 C91.8166644,41.408399 93.476531,42.5458656 95.8535976,42.5458656 C97.8218642,42.5458656 99.4234642,41.7953323 100.613997,40.313599 L100.935464,39.913599 L103.615064,41.170799 C103.615064,41.170799 103.173997,41.855199 102.903064,42.1750656 C102.004664,43.3057323 99.9062642,45.2030655 95.9395976,45.2030655 C91.819331,45.2030655 88.8302644,42.8645323 88.8302644,39.643199 C88.8302644,35.7937324 91.8338644,34.8458658 94.6499976,34.2603991 L97.0901309,33.7374658 C99.8005308,33.1775992 100.808797,32.3802659 100.808797,30.7963992 C100.808797,28.7041326 99.0526642,27.4551993 96.1114643,27.4551993 C92.1578644,27.4551993 90.8073311,30.0431992 90.4869311,30.8374659 L90.2515977,31.4218659 L87.5645311,30.1671992 C87.5645311,30.1671992 87.7515978,29.6297326 87.8806645,29.3817326 C88.3953311,28.3125326 90.5087977,24.825466 96.0833309,24.825466 C100.712531,24.825466 103.824531,27.2697327 103.824531,30.9057326 C103.824531,34.6739991 100.984397,35.7859991 97.9150642,36.4270658" id="path26"></path>
                        <path d="M9.34530643,75.9937314 C11.1838531,75.8854648 12.8375063,75.2885315 14.2863996,74.1750648 C15.9573329,72.8911982 17.0239996,71.2229316 17.4863996,69.1911983 C17.6718662,68.3791983 17.7306662,67.5535983 17.6614662,66.7245317 C17.4999996,64.7697317 16.7693329,63.0458651 15.4197329,61.5937318 C14.7854663,60.9125318 14.0983996,60.2775985 13.431733,59.6245318 C11.934373,58.1562652 10.4958397,56.7469319 8.99583978,55.2791986 L8.84530645,55.1286653 L8.69478645,55.2791986 C7.19478649,56.7469319 5.75573319,58.1562652 4.25729323,59.6245318 C3.59218658,60.2775985 2.90521326,60.9125318 2.27083994,61.5937318 C0.921354644,63.0458651 0.190625329,64.7697317 0.0291666659,66.7245317 C-0.0401041323,67.5535983 0.0187499995,68.3791983 0.204166662,69.1911983 C0.66666665,71.2229316 1.73333329,72.8911982 3.40417325,74.1750648 C4.85207988,75.2885315 6.50677317,75.8854648 8.34530646,75.9937314 C8.34530646,75.9937314 8.70417312,76.0187981 9.34530643,75.9937314" id="path28"></path>
                        <path d="M17.6863996,19.4750662 C17.6874662,12.2947864 17.6942662,15.9135996 17.6838662,8.73489311 C17.6797329,6.82291983 17.0849329,5.08958654 15.9369329,3.55885324 C14.7139996,1.92707995 13.110413,0.839062646 11.1395864,0.303125326 C10.2249997,0.0536458653 9.29166643,-0.0411458656 8.34374646,0.0161458663 C6.40625317,0.13229173 4.68125322,0.800521313 3.19010659,2.04270662 C1.62239996,3.34947992 0.620833318,5.01093321 0.191666662,7.01093316 C0.0598958652,7.62707981 0.00104166664,8.24843979 0.00104166664,8.87759978 C0.00104166664,15.9827996 -0.00312499992,12.2911464 0.0052083332,19.3947995 L0.0052083332,40.2697323 L0.0276041326,41.1306656 C0.190103995,43.0843989 0.92083331,44.8093322 2.27030661,46.2603988 C2.90521326,46.9417322 3.59166658,47.5775988 4.25677323,48.2297321 C5.75573319,49.6989321 7.19426649,51.1083987 8.69426645,52.5750654 L8.84478645,52.7254653 L8.99583978,52.5750654 C10.4958397,51.1083987 11.934373,49.6989321 13.4327997,48.2297321 C14.0994663,47.5775988 14.784933,46.9417322 15.4182663,46.2603988 C16.7702662,44.8093322 17.4994662,43.0843989 17.6609329,41.1306656 L17.6863996,40.3494657 C17.6874662,33.7297325 17.6926662,26.633866 17.6849329,19.9401328 L17.6863996,19.9057328 L17.6863996,19.4750662" id="path30"></path>
                    </g>
                </g>
            </g>
        </g>
    </g>
</svg>