<svg xmlns="http://www.w3.org/2000/svg" viewBox="0 0 416.25 55.8"><defs><style>.a{fill:#fff;}</style></defs><title>Artboard 1</title><rect class="a" y="0.9" width="8.38" height="54"/><polygon class="a" points="76.38 40.59 48.29 0.9 41.23 0.9 41.23 54.9 49 54.9 49 15.1 77.09 54.9 84.15 54.9 84.15 0.9 76.38 0.9 76.38 40.59"/><path class="a" d="M260.91.62,238.09,54.9h9L253,40h22.23l6.29,14.87h8.87L267.77.62Zm3.19,12.32,8.1,19.74H256Z"/><path class="a" d="M347.54,3.75c-4.21-2.63-9-2.85-13.16-2.85H312.85v54h7.86V34.32h13.67c4.16,0,9-.22,13.14-2.84,4.5-2.68,7.18-7.86,7.18-13.84S352,6.43,347.54,3.75Zm-1,13.82c0,3.75-1.73,7-4.4,8.24-2,.83-4,1.31-8.83,1.31H320.71V8.1h12.61c5,0,7,.45,8.79,1.29C344.84,10.62,346.54,13.75,346.54,17.57Z"/><polygon class="a" points="383.13 47.7 383.13 32.01 409.75 32.01 409.75 24.73 383.13 24.73 383.13 8.1 415.24 8.1 415.24 0.9 375.35 0.9 375.35 54.9 416.25 54.9 416.25 47.7 383.13 47.7"/><path class="a" d="M213.4,42.26a14.69,14.69,0,0,1-12.16,6.34c-10.06,0-16.83-8.32-16.83-20.7s6.76-20.7,16.83-20.7a14.69,14.69,0,0,1,12.16,6.34l.88,1.2,7.29-3.42a18.36,18.36,0,0,0-1.82-3c-3-3.8-8.64-8.34-18.51-8.34C186,0,176.16,11,176.16,27.9S186,55.8,201.24,55.8c10.62,0,16.28-5.17,18.7-8.24.8-.91,2.16-2.83,2.16-2.83l-7.82-3.66Z"/><path class="a" d="M136.71,24l-7.14-1.5C122.34,21,120,19.13,120,14.85c0-4.46,4.55-7.58,11.06-7.58a16,16,0,0,1,13,6.11l.88,1.09L152.32,11s-1.21-1.87-2-2.75C147.91,5.19,142.16,0,131.3,0,120,0,111.83,6.4,111.83,15.22c0,10.54,8.23,13.14,15.94,14.74l6.68,1.43c7.42,1.53,10.18,3.72,10.18,8.06,0,5.73-4.81,9.15-12.86,9.15-10.82,0-14.53-7.09-15.4-9.26l-.65-1.6-7.35,3.44a22.36,22.36,0,0,0,.86,2.15c1.41,2.93,7.2,12.47,22.46,12.47,12.68,0,21.2-6.69,21.2-16.65C152.89,28.83,145.12,25.79,136.71,24Z"/></svg>