<?xml version="1.0" standalone="no"?>
<!DOCTYPE svg PUBLIC "-//W3C//DTD SVG 20010904//EN"
 "http://www.w3.org/TR/2001/REC-SVG-20010904/DTD/svg10.dtd">
<svg version="1.0" xmlns="http://www.w3.org/2000/svg"
 width="260.000000pt" height="260.000000pt" viewBox="0 0 260.000000 260.000000"
 preserveAspectRatio="xMidYMid meet">
<metadata>
Created by potrace 1.11, written by Peter Selinger 2001-2013
</metadata>
<g transform="translate(0.000000,260.000000) scale(0.100000,-0.100000)"
fill="#000000" stroke="none">
<path d="M0 1300 l0 -1300 1300 0 1300 0 0 1300 0 1300 -1300 0 -1300 0 0
-1300z m2590 0 l0 -1290 -1290 0 -1290 0 0 1290 0 1290 1290 0 1290 0 0 -1290z"/>
<path d="M1297 2434 c-6 -6 -56 -14 -100 -15 -10 0 -15 -5 -11 -11 5 -7 2 -9
-9 -5 -9 3 -18 0 -21 -9 -3 -8 -15 -14 -26 -14 -12 0 -18 -4 -15 -10 3 -5 -1
-10 -9 -10 -9 0 -16 -4 -16 -10 0 -5 -6 -10 -13 -10 -7 0 -18 -9 -25 -21 -8
-12 -9 -18 -4 -15 6 3 5 -5 -1 -18 -7 -13 -14 -23 -18 -21 -6 4 -7 -4 -10 -50
-1 -15 -6 -22 -13 -18 -6 4 -5 -1 3 -10 10 -13 10 -17 1 -17 -10 0 -10 -3 0
-15 7 -8 10 -21 7 -29 -3 -7 1 -25 8 -40 8 -15 10 -24 5 -21 -19 12 -10 -11 9
-25 11 -7 18 -17 16 -21 -3 -4 11 -19 30 -34 19 -16 32 -32 29 -37 -3 -5 0 -7
8 -6 7 2 12 -4 10 -12 -2 -8 -1 -12 3 -8 4 4 13 2 21 -5 7 -7 20 -18 29 -25 8
-7 12 -18 9 -24 -4 -7 -2 -8 4 -4 7 4 12 2 12 -3 0 -6 6 -11 14 -11 8 0 18 -9
21 -20 3 -11 13 -20 21 -20 8 0 13 -4 10 -9 -14 -22 24 -2 54 29 19 19 38 34
42 33 4 -2 10 6 13 17 4 11 13 20 21 20 8 0 12 5 9 10 -3 6 1 10 10 10 9 0 13
5 10 10 -6 9 8 14 28 11 5 -1 6 3 2 9 -3 5 1 13 9 16 9 3 16 13 16 21 0 8 5
11 10 8 9 -6 14 8 11 28 0 4 6 7 14 7 8 0 15 7 15 16 0 8 4 13 8 10 5 -3 9 1
9 9 0 8 -5 11 -11 8 -8 -5 -7 -2 0 8 13 16 28 69 25 84 -4 15 -11 58 -13 75 0
8 -9 27 -19 41 -10 14 -15 30 -11 34 4 5 3 6 -3 3 -9 -5 -44 22 -37 29 1 2 -1
3 -4 2 -3 0 -17 12 -31 28 -14 15 -22 22 -18 14 5 -9 -1 -8 -18 4 -15 9 -31
14 -36 10 -6 -3 -9 0 -6 7 4 10 -5 13 -35 11 -23 -1 -38 2 -35 8 7 10 2 12 -8
3z"/>
<path d="M1280 1715 c0 -8 -3 -14 -7 -13 -15 3 -43 -14 -37 -23 3 -5 -2 -9
-10 -9 -9 0 -16 -7 -16 -16 0 -8 -4 -12 -10 -9 -5 3 -10 -2 -10 -11 0 -10 -3
-15 -6 -12 -6 7 -54 -39 -54 -52 0 -6 -5 -9 -11 -7 -6 1 -16 -6 -22 -17 -7
-10 -22 -29 -34 -42 -13 -13 -23 -28 -23 -34 0 -6 -4 -9 -8 -6 -8 5 -9 0 -13
-66 -2 -20 -7 -35 -11 -32 -4 3 -8 -2 -8 -11 0 -9 5 -13 10 -10 6 3 10 1 10
-4 0 -6 -4 -11 -10 -11 -5 0 -10 -5 -10 -11 0 -5 4 -8 8 -5 10 6 9 -60 0 -70
-4 -4 -3 -14 2 -24 5 -10 6 -21 2 -24 -8 -9 -11 -67 -3 -62 3 3 6 -93 5 -212
-1 -120 -2 -217 -4 -217 -1 0 -3 -8 -5 -18 -2 -9 0 -15 5 -12 10 6 7 -21 -3
-31 -11 -11 -8 -26 3 -19 6 3 10 1 10 -4 0 -6 -4 -11 -10 -11 -5 0 -10 -5 -10
-11 0 -5 4 -8 8 -5 10 6 9 -60 0 -70 -4 -4 -3 -14 2 -24 5 -10 6 -20 3 -24 -4
-4 -8 -17 -10 -29 -2 -15 0 -18 5 -9 6 8 8 0 8 -22 -1 -20 -5 -36 -11 -36 -5
0 -4 -4 3 -8 7 -5 11 -19 9 -32 -2 -14 2 -31 10 -38 7 -7 13 -22 13 -33 0 -11
5 -17 10 -14 6 3 10 -1 10 -10 0 -8 7 -18 15 -21 8 -4 15 -12 15 -20 0 -8 6
-14 13 -14 7 0 23 -9 34 -19 11 -11 44 -27 74 -35 62 -19 62 -19 54 -6 -4 6 2
7 17 2 28 -10 70 -7 96 7 11 6 22 7 26 4 3 -3 6 1 6 9 0 11 6 14 20 11 14 -4
20 0 20 11 0 10 4 15 9 12 5 -3 12 1 15 10 3 8 11 12 16 9 6 -4 9 -3 8 2 -4
12 28 54 35 47 4 -4 4 3 2 16 -3 15 0 20 8 17 8 -3 13 4 14 17 1 11 5 41 9 66
4 25 8 50 9 55 1 6 -3 15 -7 22 -5 6 -5 14 0 17 10 6 8 88 -2 105 -4 5 -2 12
3 15 9 6 7 88 -3 105 -4 5 -2 12 3 15 9 6 7 88 -3 105 -4 5 -2 12 3 15 9 6 7
88 -3 105 -4 5 -2 12 3 15 9 6 7 108 -3 125 -4 5 -3 12 2 15 7 4 9 112 2 141
-1 6 -1 12 0 15 7 15 6 87 -1 101 -5 9 -3 21 4 29 9 10 9 11 -2 5 -11 -6 -13
-3 -9 13 4 12 2 24 -2 27 -5 3 -7 14 -5 25 2 11 -1 19 -8 17 -6 -1 -12 4 -13
11 -1 6 -2 17 -3 23 0 5 -5 7 -11 4 -5 -3 -10 0 -10 8 0 8 -13 25 -30 38 -16
13 -30 30 -30 37 0 7 -4 10 -10 7 -5 -3 -10 2 -10 11 0 10 -3 15 -6 12 -7 -8
-62 45 -57 55 2 4 -1 7 -8 7 -6 0 -25 14 -41 30 -32 34 -38 36 -38 15z"/>
<path d="M995 991 c-3 -5 -2 -12 3 -15 5 -3 9 1 9 9 0 17 -3 19 -12 6z"/>
<path d="M995 911 c-3 -5 -2 -12 3 -15 5 -3 9 1 9 9 0 17 -3 19 -12 6z"/>
<path d="M995 831 c-3 -5 -2 -12 3 -15 5 -3 9 1 9 9 0 17 -3 19 -12 6z"/>
<path d="M995 751 c-3 -5 -2 -12 3 -15 5 -3 9 1 9 9 0 17 -3 19 -12 6z"/>
</g>
</svg>
